<svg xmlns="http://www.w3.org/2000/svg" viewBox="0 0 960 620">
  <defs>
    <linearGradient id="bg" x1="0%" y1="0%" x2="100%" y2="100%">
      <stop offset="0%" stop-color="#0f0f1a"/>
      <stop offset="100%" stop-color="#1a1a2e"/>
    </linearGradient>
    <marker id="ap" markerWidth="8" markerHeight="6" refX="7" refY="3" orient="auto">
      <polygon points="0 0, 8 3, 0 6" fill="#a855f7"/>
    </marker>
    <marker id="ab" markerWidth="8" markerHeight="6" refX="7" refY="3" orient="auto">
      <polygon points="0 0, 8 3, 0 6" fill="#3b82f6"/>
    </marker>
    <marker id="ag" markerWidth="8" markerHeight="6" refX="7" refY="3" orient="auto">
      <polygon points="0 0, 8 3, 0 6" fill="#10b981"/>
    </marker>
    <marker id="ao" markerWidth="8" markerHeight="6" refX="7" refY="3" orient="auto">
      <polygon points="0 0, 8 3, 0 6" fill="#f97316"/>
    </marker>
    <marker id="ar" markerWidth="8" markerHeight="6" refX="7" refY="3" orient="auto">
      <polygon points="0 0, 8 3, 0 6" fill="#ef4444"/>
    </marker>
    <marker id="agray" markerWidth="8" markerHeight="6" refX="7" refY="3" orient="auto">
      <polygon points="0 0, 8 3, 0 6" fill="#64748b"/>
    </marker>
  </defs>
  <rect width="960" height="620" fill="url(#bg)"/>
  <style>text { font-family: "SF Mono","Fira Code","Cascadia Code",monospace; }</style>
  <text x="480" y="32" text-anchor="middle" font-size="14" font-weight="700" fill="#e2e8f0" letter-spacing="0.08em">PHASE B — LangGraph Translation Loop</text>
  <circle cx="480" cy="42" r="8" fill="#64748b"/>
  <text x="480" y="46" text-anchor="middle" font-size="9" fill="#0f0f1a" font-weight="700">▶</text>
  <rect x="392" y="67" width="176" height="58" rx="9" fill="none" stroke="#7c3aed" stroke-width="3" opacity="0.3"/>
  <rect x="395" y="70" width="170" height="52" rx="6" fill="#1e1b4b" stroke="#7c3aed" stroke-width="1.5"/>
  <text x="480" y="90" text-anchor="middle" font-size="12" font-weight="700" fill="#e2e8f0">pick_next_node</text>
  <text x="480" y="105" text-anchor="middle" font-size="10" fill="#94a3b8">select next eligible node</text>
  <rect x="130" y="210" width="170" height="52" rx="6" fill="#0f172a" stroke="#3b82f6" stroke-width="1.5"/>
  <text x="215" y="230" text-anchor="middle" font-size="12" font-weight="700" fill="#e2e8f0">build_context</text>
  <text x="215" y="245" text-anchor="middle" font-size="10" fill="#94a3b8">assemble prompt</text>
  <rect x="395" y="210" width="170" height="52" rx="6" fill="#0f172a" stroke="#3b82f6" stroke-width="1.5"/>
  <text x="480" y="230" text-anchor="middle" font-size="12" font-weight="700" fill="#e2e8f0">invoke_agent</text>
  <text x="480" y="245" text-anchor="middle" font-size="10" fill="#94a3b8">claude --print subprocess</text>
  <rect x="660" y="210" width="170" height="52" rx="6" fill="#0f172a" stroke="#3b82f6" stroke-width="1.5"/>
  <text x="745" y="230" text-anchor="middle" font-size="12" font-weight="700" fill="#e2e8f0">verify</text>
  <text x="745" y="245" text-anchor="middle" font-size="10" fill="#94a3b8">stub / branch / cargo</text>
  <rect x="130" y="380" width="170" height="52" rx="6" fill="#0f1f10" stroke="#059669" stroke-width="1.5"/>
  <text x="215" y="400" text-anchor="middle" font-size="12" font-weight="700" fill="#e2e8f0">retry_node</text>
  <text x="215" y="415" text-anchor="middle" font-size="10" fill="#94a3b8">increment attempt_count</text>
  <rect x="395" y="380" width="170" height="52" rx="6" fill="#1a0d04" stroke="#f97316" stroke-width="1.5"/>
  <text x="480" y="400" text-anchor="middle" font-size="12" font-weight="700" fill="#e2e8f0">escalate_node</text>
  <text x="480" y="415" text-anchor="middle" font-size="10" fill="#94a3b8">promote sonnet → opus</text>
  <rect x="660" y="380" width="170" height="52" rx="6" fill="#052e16" stroke="#10b981" stroke-width="1.5"/>
  <text x="745" y="400" text-anchor="middle" font-size="12" font-weight="700" fill="#e2e8f0">update_manifest</text>
  <text x="745" y="415" text-anchor="middle" font-size="10" fill="#94a3b8">write .rs, mark CONVERTED</text>
  <rect x="680" y="490" width="170" height="52" rx="6" fill="#3b0a0a" stroke="#ef4444" stroke-width="1.5"/>
  <text x="765" y="510" text-anchor="middle" font-size="12" font-weight="700" fill="#e2e8f0">queue_for_review</text>
  <text x="765" y="525" text-anchor="middle" font-size="10" fill="#94a3b8">mark HUMAN_REVIEW</text>
  <circle cx="750" cy="412" r="10" fill="none" stroke="#64748b" stroke-width="2"/>
  <circle cx="750" cy="412" r="6" fill="#64748b"/>
  <line x1="480" y1="50" x2="480" y2="70" stroke="#64748b" stroke-width="1.5" marker-end="url(#agray)"/>
  <path d="M 405,122 L 405,162 L 215,162 L 215,210" stroke="#3b82f6" stroke-width="1.5" fill="none" marker-end="url(#ab)"/>
  <rect x="252" y="137" width="56" height="16" rx="3" fill="#0f0f1a" opacity="0.9"/>
  <text x="280" y="149" text-anchor="middle" font-size="10" fill="#94a3b8">node ready</text>
  <line x1="565" y1="96" x2="935" y2="96" stroke="#64748b" stroke-width="1.5" marker-end="url(#agray)"/>
  <rect x="876" y="72" width="48" height="16" rx="3" fill="#0f0f1a" opacity="0.9"/>
  <text x="900" y="84" text-anchor="middle" font-size="10" fill="#94a3b8">all done</text>
  <circle cx="938" cy="96" r="8" fill="none" stroke="#64748b" stroke-width="2"/>
  <circle cx="938" cy="96" r="4" fill="#64748b"/>
  <line x1="300" y1="236" x2="395" y2="236" stroke="#3b82f6" stroke-width="1.5" marker-end="url(#ab)"/>
  <line x1="565" y1="236" x2="660" y2="236" stroke="#3b82f6" stroke-width="1.5" marker-end="url(#ab)"/>
  <line x1="745" y1="262" x2="745" y2="380" stroke="#10b981" stroke-width="1.5" marker-end="url(#ag)"/>
  <rect x="751" y="282" width="48" height="16" rx="3" fill="#0f0f1a" opacity="0.9"/>
  <text x="775" y="294" text-anchor="middle" font-size="10" fill="#94a3b8">PASS</text>
  <path d="M 660,236 L 640,236 L 640,406 L 300,406" stroke="#059669" stroke-width="1.5" fill="none" marker-end="url(#ag)"/>
  <rect x="572" y="311" width="56" height="16" rx="3" fill="#0f0f1a" opacity="0.9"/>
  <text x="600" y="323" text-anchor="middle" font-size="10" fill="#94a3b8">retry</text>
  <path d="M 745,262 L 745,282 L 480,282 L 480,380" stroke="#f97316" stroke-width="1.5" fill="none" marker-end="url(#ao)"/>
  <rect x="502" y="262" width="56" height="16" rx="3" fill="#0f0f1a" opacity="0.9"/>
  <text x="530" y="274" text-anchor="middle" font-size="10" fill="#94a3b8">escalate</text>
  <path d="M 830,246 L 785,246 L 785,490" stroke="#ef4444" stroke-width="1.5" fill="none" stroke-dasharray="4,3" marker-end="url(#ar)"/>
  <rect x="807" y="222" width="56" height="16" rx="3" fill="#0f0f1a" opacity="0.9"/>
  <text x="835" y="234" text-anchor="middle" font-size="10" fill="#94a3b8">exhausted</text>
  <path d="M 215,380 L 215,350 L 215,350 L 215,262" stroke="#059669" stroke-width="1.5" fill="none" marker-end="url(#ag)"/>
  <path d="M 480,380 L 480,350 L 225,350 L 225,262" stroke="#f97316" stroke-width="1.5" fill="none" marker-end="url(#ao)"/>
  <path d="M 830,406 L 940,406 L 940,90 L 565,90" stroke="#10b981" stroke-width="1.5" fill="none" stroke-dasharray="5,3" marker-end="url(#ag)"/>
  <rect x="912" y="215" width="56" height="16" rx="3" fill="#0f0f1a" opacity="0.9"/>
  <text x="940" y="227" text-anchor="middle" font-size="10" fill="#94a3b8">loop</text>
  <path d="M 850,516 L 960,516" stroke="#ef4444" stroke-width="1.5" fill="none" marker-end="url(#ar)"/>
  <text x="920" y="510" text-anchor="middle" font-size="9" fill="#ef4444">→ pick_next</text>
  <line x1="745" y1="432" x2="750" y2="402" stroke="#64748b" stroke-width="1.5" marker-end="url(#agray)"/>
  <text x="30" y="555" font-size="10" fill="#475569">LEGEND:</text>
  <line x1="100" y1="551" x2="128" y2="551" stroke="#3b82f6" stroke-width="2"/>
  <text x="134" y="555" font-size="10" fill="#94a3b8">normal flow</text>
  <line x1="268" y1="551" x2="296" y2="551" stroke="#10b981" stroke-width="2"/>
  <text x="302" y="555" font-size="10" fill="#94a3b8">PASS / converted</text>
  <line x1="436" y1="551" x2="464" y2="551" stroke="#f97316" stroke-width="2"/>
  <text x="470" y="555" font-size="10" fill="#94a3b8">tier escalation</text>
  <line x1="604" y1="551" x2="632" y2="551" stroke="#ef4444" stroke-width="2"/>
  <text x="638" y="555" font-size="10" fill="#94a3b8">→ review queue</text>
  <line x1="772" y1="551" x2="800" y2="551" stroke="#059669" stroke-width="2"/>
  <text x="806" y="555" font-size="10" fill="#94a3b8">retry loop</text>
</svg>